<?xml version="1.0" encoding="UTF-8" standalone="no"?>
<!-- Generator: Adobe Illustrator 16.0.0, SVG Export Plug-In . SVG Version: 6.00 Build 0)  -->

<svg
   version="1.1"
   id="Ebene_1"
   x="0px"
   y="0px"
   width="23.000002"
   height="23"
   viewBox="0 0 23.000002 23"
   enable-background="new 0 0 100 100"
   xml:space="preserve"
   sodipodi:docname="Hundefreilaufflaeche.svg"
   inkscape:version="1.2.2 (732a01da63, 2022-12-09)"
   xmlns:inkscape="http://www.inkscape.org/namespaces/inkscape"
   xmlns:sodipodi="http://sodipodi.sourceforge.net/DTD/sodipodi-0.dtd"
   xmlns="http://www.w3.org/2000/svg"
   xmlns:svg="http://www.w3.org/2000/svg"><defs
   id="defs18" /><sodipodi:namedview
   id="namedview16"
   pagecolor="#ffffff"
   bordercolor="#666666"
   borderopacity="1.0"
   inkscape:pageshadow="2"
   inkscape:pageopacity="0.0"
   inkscape:pagecheckerboard="0"
   showgrid="false"
   inkscape:zoom="11.766257"
   inkscape:cx="-1.3173263"
   inkscape:cy="0.93487675"
   inkscape:window-width="1920"
   inkscape:window-height="1017"
   inkscape:window-x="-8"
   inkscape:window-y="-8"
   inkscape:window-maximized="1"
   inkscape:current-layer="Ebene_1"
   inkscape:showpageshadow="2"
   inkscape:deskcolor="#d1d1d1" />
<linearGradient
   id="SVGID_1_"
   gradientUnits="userSpaceOnUse"
   x1="26.835899"
   y1="49.977501"
   x2="77.836899"
   y2="49.977501"
   gradientTransform="matrix(0.41818186,0,0,0.41818178,-10.385964,-9.3998888)">
	<stop
   offset="1"
   style="stop-color:#FFFFFF"
   id="stop2" />
	<stop
   offset="1"
   style="stop-color:#000000"
   id="stop4" />
</linearGradient>
<ellipse
   stroke-width="1.67273"
   stroke-miterlimit="10"
   cx="11.500001"
   cy="11.5"
   id="circle7"
   style="fill:url(#SVGID_1_);stroke:#206631;stroke-opacity:1"
   rx="10.663636"
   ry="10.663635" />

<g
   id="g1350"
   transform="matrix(0.99989859,0.01424078,-0.01528243,1.0730371,0.48127776,-1.5013674)"><path
     style="fill:#206631;fill-opacity:1;stroke:none;stroke-width:0.283317;stroke-linecap:round;stroke-linejoin:round;paint-order:markers fill stroke"
     id="path350"
     sodipodi:type="arc"
     sodipodi:cx="5.6282258"
     sodipodi:cy="11.092279"
     sodipodi:rx="2.0155683"
     sodipodi:ry="2.0155683"
     sodipodi:start="0.034906585"
     sodipodi:end="6.2831853"
     sodipodi:open="true"
     sodipodi:arc-type="arc"
     d="M 7.6425662,11.162622 A 2.0155683,2.0155683 0 0 1 5.5754644,13.107157 2.0155683,2.0155683 0 0 1 3.6129645,11.057103 2.0155683,2.0155683 0 0 1 5.6458147,9.0767879 2.0155683,2.0155683 0 0 1 7.6437941,11.092279" /><path
     style="fill:#206631;fill-opacity:1;stroke:none;stroke-width:0.283317;stroke-linecap:round;stroke-linejoin:round;paint-order:markers fill stroke"
     id="path350-3"
     sodipodi:type="arc"
     sodipodi:cx="9.040637"
     sodipodi:cy="8.0192842"
     sodipodi:rx="2.0155683"
     sodipodi:ry="2.0155683"
     sodipodi:start="0.034906585"
     sodipodi:end="6.2831853"
     sodipodi:open="true"
     sodipodi:arc-type="arc"
     d="M 11.054977,8.0896266 A 2.0155683,2.0155683 0 0 1 8.9878756,10.034162 2.0155683,2.0155683 0 0 1 7.0253757,7.9841077 2.0155683,2.0155683 0 0 1 9.0582259,6.0037927 2.0155683,2.0155683 0 0 1 11.056205,8.0192842" /><path
     style="fill:#206631;fill-opacity:1;stroke:none;stroke-width:0.283317;stroke-linecap:round;stroke-linejoin:round;paint-order:markers fill stroke"
     id="path350-3-1"
     sodipodi:type="arc"
     sodipodi:cx="13.51387"
     sodipodi:cy="8.0192842"
     sodipodi:rx="2.0155683"
     sodipodi:ry="2.0155683"
     sodipodi:start="0.034906585"
     sodipodi:end="6.2831853"
     sodipodi:open="true"
     sodipodi:arc-type="arc"
     d="m 15.528211,8.0896266 a 2.0155683,2.0155683 0 0 1 -2.067102,1.9445354 2.0155683,2.0155683 0 0 1 -1.9625,-2.0500543 2.0155683,2.0155683 0 0 1 2.03285,-1.980315 2.0155683,2.0155683 0 0 1 1.997979,2.0154915" /><path
     style="fill:#206631;fill-opacity:1;stroke:none;stroke-width:0.283317;stroke-linecap:round;stroke-linejoin:round;paint-order:markers fill stroke"
     id="path350-3-1-1"
     sodipodi:type="arc"
     sodipodi:cx="17.131392"
     sodipodi:cy="11.092279"
     sodipodi:rx="2.0155683"
     sodipodi:ry="2.0155683"
     sodipodi:start="0.034906585"
     sodipodi:end="6.2831853"
     sodipodi:open="true"
     sodipodi:arc-type="arc"
     d="m 19.145732,11.162622 a 2.0155683,2.0155683 0 0 1 -2.067102,1.944535 2.0155683,2.0155683 0 0 1 -1.9625,-2.050054 2.0155683,2.0155683 0 0 1 2.03285,-1.9803151 2.0155683,2.0155683 0 0 1 1.99798,2.0154911" /><path
     style="fill:#206631;fill-opacity:1;stroke:none;stroke-width:0.276306;stroke-linecap:round;stroke-linejoin:round;paint-order:markers fill stroke"
     id="path1313"
     sodipodi:type="arc"
     sodipodi:cx="-11.42615"
     sodipodi:cy="-17.372894"
     sodipodi:rx="5.4355669"
     sodipodi:ry="6.7743568"
     sodipodi:start="6.263532"
     sodipodi:end="3.1415927"
     sodipodi:open="true"
     sodipodi:arc-type="arc"
     d="m -5.9916331,-17.506024 a 5.4355669,6.7743568 0 0 1 -2.6552924,5.955013 5.4355669,6.7743568 0 0 1 -5.4661125,0.06695 5.4355669,6.7743568 0 0 1 -2.748679,-5.888828"
     transform="scale(-1)" /></g></svg>
